<?xml version="1.0" standalone="no"?>
<!DOCTYPE svg PUBLIC "-//W3C//DTD SVG 20010904//EN"
 "http://www.w3.org/TR/2001/REC-SVG-20010904/DTD/svg10.dtd">
<svg version="1.0" xmlns="http://www.w3.org/2000/svg"
 width="300.000000pt" height="300.000000pt" viewBox="0 0 300.000000 300.000000"
 preserveAspectRatio="xMidYMid meet">
<metadata>
Created by potrace 1.14, written by Peter Selinger 2001-2017
</metadata>
<g transform="translate(0.000000,300.000000) scale(0.100000,-0.100000)"
fill="#000000" stroke="none">
<path d="M502 2989 c-151 -16 -248 -64 -351 -174 -70 -76 -116 -164 -133 -260
-10 -54 -13 -296 -13 -1055 0 -1075 0 -1069 57 -1190 42 -88 159 -205 248
-248 119 -57 116 -57 1190 -57 1075 0 1069 0 1190 57 88 42 205 159 248 248
57 119 57 116 57 1190 0 1075 0 1069 -57 1190 -37 78 -156 201 -235 243 -116
62 -94 60 -1153 63 -531 1 -1002 -2 -1048 -7z m708 -479 c0 -5 -4 -10 -10 -10
-5 0 -10 5 -10 10 0 6 5 10 10 10 6 0 10 -4 10 -10z m75 -290 c3 -5 -1 -10 -9
-10 -9 0 -16 5 -16 10 0 6 4 10 9 10 6 0 13 -4 16 -10z m354 -208 c48 -23 67
-42 138 -137 127 -170 273 -373 275 -386 4 -17 -100 -50 -166 -52 l-59 -2
-113 150 c-122 162 -182 225 -213 225 -37 0 -84 -55 -331 -385 -136 -182 -255
-339 -264 -348 -9 -9 -45 -25 -79 -36 -34 -11 -79 -26 -99 -35 -36 -15 -38
-15 -52 6 -9 12 -16 39 -16 59 0 35 6 47 76 145 42 60 395 543 475 651 80 107
141 154 234 177 44 11 139 -5 194 -32z m-97 -578 c5 -4 -1 -18 -16 -33 -14
-15 -31 -41 -37 -59 -8 -25 -16 -31 -29 -27 -13 4 -20 0 -25 -15 -3 -11 -14
-24 -24 -30 -13 -6 -20 -25 -23 -62 -3 -29 -9 -62 -13 -72 -8 -17 -5 -19 28
-13 20 3 75 21 122 40 47 19 85 33 85 31 0 -7 -118 -62 -180 -84 -72 -26 -94
-40 -64 -41 14 0 12 -3 -9 -11 -19 -7 -32 -7 -41 1 -7 6 -45 10 -88 8 -53 -1
-80 2 -92 12 -17 14 -17 21 -1 66 7 20 6 20 -9 1 -20 -25 -20 -60 0 -77 9 -7
34 -16 57 -20 39 -6 40 -7 9 -8 -52 -2 -102 24 -102 52 0 27 37 80 50 72 4 -3
13 2 21 11 7 8 22 20 33 26 17 9 15 5 -7 -21 -30 -36 -33 -53 -14 -69 13 -11
107 -28 107 -19 0 2 -7 21 -15 40 -63 152 63 329 223 312 24 -3 48 -8 54 -11z
m-144 -741 c5 -17 -26 -29 -40 -15 -6 6 -7 15 -3 22 9 14 37 9 43 -7z"/>
</g>
</svg>
