<svg xmlns="http://www.w3.org/2000/svg" width="170" height="170" fill="none" xmlns:v="https://vecta.io/nano"><path d="M1 80c0-14.018.001-24.471.678-32.758.676-8.276 2.022-14.304 4.663-19.487A49 49 0 0 1 27.755 6.341C32.938 3.7 38.966 2.354 47.242 1.678 55.529 1.001 65.982 1 80 1h10c14.018 0 24.471.001 32.758.678 8.276.676 14.304 2.022 19.488 4.663a49 49 0 0 1 21.413 21.414c2.641 5.183 3.987 11.211 4.663 19.487.677 8.288.678 18.741.678 32.758v10c0 14.018-.001 24.471-.678 32.758-.676 8.276-2.022 14.304-4.663 19.488a49 49 0 0 1-21.413 21.413c-5.184 2.641-11.212 3.987-19.488 4.663-8.287.677-18.74.678-32.758.678H80c-14.018 0-24.471-.001-32.758-.678-8.276-.676-14.304-2.022-19.487-4.663a49 49 0 0 1-21.414-21.413c-2.641-5.184-3.987-11.212-4.663-19.488C1.001 114.471 1 104.018 1 90V80z" fill="url(#A)" stroke="#121429" stroke-width="2"/><rect x=".5" y=".5" width="169" height="169" rx="49.5" stroke="url(#B)"/><path d="M113.063 44.723l-3.52 7.482H82.899L110.813 14 97.491 45.745l15.572-1.022z" fill="url(#C)"/><path d="M57.125 125.277l3.576-7.6h26.675L59.375 156l13.322-31.745-15.572 1.022z" fill="url(#C)"/><path d="M53 84.385l8.949-22.316h-8.51v-4.445h13.687v4.356l-8.949 22.315h8.949v4.445H53v-4.356zm16.859-26.761h13.16v4.445h-8.335v8.224h6.624v4.445h-6.624v9.557h8.335v4.445h-13.16V57.624zm22.955 31.562c-2.34 0-4.124-.667-5.352-2-1.228-1.363-1.842-3.304-1.842-5.823V57.624h4.825v24.094c0 1.067.205 1.837.614 2.311.439.474 1.053.711 1.842.711s1.389-.237 1.799-.711c.439-.474.658-1.245.658-2.311V57.624h4.65v23.738c0 2.519-.614 4.46-1.842 5.823-1.228 1.334-3.012 2-5.352 2zm16.904 0c-2.34 0-4.109-.667-5.308-2-1.199-1.363-1.799-3.304-1.799-5.823v-1.778h4.563v2.134c0 2.015.833 3.023 2.5 3.023.819 0 1.433-.237 1.843-.711.438-.504.658-1.304.658-2.4 0-1.304-.293-2.445-.878-3.423-.585-1.008-1.667-2.208-3.246-3.601-1.989-1.778-3.378-3.378-4.167-4.801-.79-1.452-1.185-3.082-1.185-4.89 0-2.46.614-4.356 1.843-5.69 1.228-1.363 3.012-2.045 5.351-2.045 2.311 0 4.051.682 5.221 2.045 1.199 1.334 1.798 3.26 1.798 5.779v1.289h-4.562v-1.6c0-1.067-.205-1.837-.614-2.312-.41-.504-1.009-.756-1.799-.756-1.608 0-2.412.993-2.412 2.978a6.04 6.04 0 0 0 .877 3.156c.614.978 1.711 2.163 3.29 3.556 2.018 1.778 3.407 3.393 4.167 4.845S117 79.317 117 81.273c0 2.549-.629 4.505-1.886 5.868-1.229 1.363-3.027 2.045-5.396 2.045zM53 91.544h3.271v8.587h3.509v-8.587h3.271v21.092H59.78v-9.491h-3.509v9.491H53V91.544zm12.486 0h8.92v3.013h-5.649v5.574h4.49v3.014h-4.49v6.478h5.649v3.013h-8.92V91.544zm13.329 0h4.43l3.39 21.092h-3.271l-.595-4.189v.061h-3.717l-.595 4.128h-3.033l3.39-21.092zm3.568 14.101L80.926 95.22h-.059l-1.427 10.425h2.944zm5.838-14.101h3.271v18.079h5.382v3.013h-8.653V91.544zm10.456 3.013h-3.419v-3.013h10.11v3.013h-3.42v18.079h-3.27V94.557zm8.273-3.013h3.271v8.587h3.508v-8.587H117v21.092h-3.271v-9.491h-3.508v9.491h-3.271V91.544z" fill="#fff"/><defs><linearGradient id="A" x1="0" y1="94.189" x2="115.926" y2="15.015" gradientUnits="userSpaceOnUse"><stop stop-color="#191c37"/><stop offset="1" stop-color="#2e102f"/></linearGradient><linearGradient id="B" x1="157.722" y1="11.333" x2="85" y2="85" gradientUnits="userSpaceOnUse"><stop stop-color="#fb2724"/><stop offset=".134" stop-color="#f94c34"/><stop offset="1" stop-color="#f86d41" stop-opacity="0"/></linearGradient><linearGradient id="C" x1="113.063" y1="93.635" x2="57.143" y2="95.586" gradientUnits="userSpaceOnUse"><stop stop-color="#fb2724"/><stop offset="1" stop-color="#f86d41"/></linearGradient></defs></svg>