<?xml version="1.0" standalone="no"?>
<!DOCTYPE svg PUBLIC "-//W3C//DTD SVG 20010904//EN"
 "http://www.w3.org/TR/2001/REC-SVG-20010904/DTD/svg10.dtd">
<svg version="1.0" xmlns="http://www.w3.org/2000/svg"
 width="320.000000pt" height="320.000000pt" viewBox="0 0 320.000000 320.000000"
 preserveAspectRatio="xMidYMid meet">
<metadata>
Created by potrace 1.14, written by Peter Selinger 2001-2017
</metadata>
<g transform="translate(0.000000,320.000000) scale(0.100000,-0.100000)"
fill="#000000" stroke="none">
<path d="M1997 2953 c-4 -3 -7 -63 -7 -133 0 -85 -4 -130 -12 -138 -8 -8 -65
-12 -190 -12 l-179 0 3 -62 3 -63 185 -5 185 -5 3 -417 c2 -389 3 -418 20
-418 9 0 37 -11 61 -25 23 -14 47 -25 52 -25 5 0 10 194 11 443 l3 442 185 5
185 5 0 60 0 60 -185 6 c-102 3 -186 6 -187 7 -2 1 -3 60 -3 130 0 86 -4 132
-12 140 -13 13 -110 17 -121 5z"/>
<path d="M930 2430 c-94 -12 -192 -36 -252 -64 -60 -26 -188 -152 -188 -183 0
-10 -4 -23 -9 -28 -8 -10 -25 -220 -22 -277 2 -41 19 -78 35 -78 19 0 46 -38
46 -65 0 -11 -10 -29 -21 -39 -17 -14 -20 -25 -16 -54 5 -25 3 -32 -4 -25 -12
12 -17 49 -18 121 -1 45 -24 60 -36 22 -7 -23 -3 -40 32 -118 18 -42 27 -52
33 -42 18 29 32 -7 31 -77 -2 -123 44 -210 172 -327 75 -69 85 -90 54 -108
-13 -7 -31 -2 -67 18 -64 35 -87 61 -99 109 l-9 40 -1 -35 c-1 -46 51 -103
129 -139 50 -24 66 -26 180 -26 117 0 129 2 184 29 40 20 68 42 90 73 34 49
46 39 27 -20 -14 -41 -56 -83 -118 -116 -54 -29 -73 -59 -73 -114 0 -47 -22
-57 -120 -57 -98 0 -116 9 -125 62 -10 59 -12 61 -83 111 -85 59 -112 98 -112
160 0 43 -2 48 -15 37 -8 -7 -15 -17 -15 -22 0 -6 -14 -38 -30 -73 l-30 -63
-113 -56 c-61 -31 -168 -76 -237 -100 l-125 -44 3 -119 c7 -261 55 -388 201
-534 68 -68 103 -95 171 -128 152 -75 134 -73 1120 -78 893 -4 1079 1 1203 33
106 27 193 80 288 174 154 153 197 280 201 605 l3 170 -100 -1 c-126 -1 -172
-19 -345 -134 -172 -113 -256 -154 -372 -178 -108 -23 -175 -54 -262 -119
l-59 -44 -18 46 c-10 25 -21 52 -26 58 -5 7 -15 37 -22 67 -15 61 -35 100 -53
100 -23 0 -317 124 -430 181 -159 81 -219 123 -251 173 -32 51 -34 78 -7 116
30 42 49 104 59 190 6 57 14 83 29 98 34 34 62 98 62 141 0 22 3 42 8 44 8 5
5 323 -4 447 -5 66 -9 78 -33 101 -16 15 -30 31 -32 36 -9 21 -87 82 -131 101
-54 24 -181 34 -278 22z m58 -272 c39 -12 93 -20 136 -20 58 0 79 -4 118 -26
44 -25 49 -31 60 -82 7 -33 12 -134 12 -250 1 -232 -13 -301 -70 -356 -19 -19
-38 -34 -43 -34 -4 0 -6 21 -4 48 3 44 0 52 -48 117 -52 69 -79 76 -40 10 24
-41 12 -47 -18 -8 -18 22 -25 25 -44 15 -43 -20 -57 -21 -101 -5 -44 17 -47
16 -85 -5 -21 -12 -49 -22 -62 -22 -22 0 -21 2 11 38 19 20 9 12 -23 -18 l-59
-55 7 -57 c4 -38 2 -58 -5 -58 -5 0 -10 7 -10 15 0 8 -3 15 -7 15 -5 0 -17 14
-28 30 -11 16 -28 30 -37 30 -34 0 -57 52 -64 149 -8 107 6 205 42 299 13 34
24 77 24 95 1 54 20 121 43 146 21 22 25 23 126 16 57 -3 133 -16 169 -27z
m358 -563 l-15 -40 0 43 c-1 24 5 53 11 65 l13 22 3 -25 c1 -14 -4 -43 -12
-65z m-361 -183 c39 -8 87 -16 109 -17 49 -3 60 -22 38 -66 -19 -38 -60 -51
-82 -24 -11 13 -10 19 4 34 17 19 16 20 -10 38 -20 12 -48 18 -101 19 -41 0
-76 -3 -79 -7 -3 -5 2 -20 11 -33 20 -30 13 -46 -20 -46 -50 0 -92 59 -75 105
9 24 12 25 72 19 35 -3 95 -13 133 -22z"/>
<path d="M735 1900 c-45 -10 -74 -31 -84 -62 -6 -16 -7 -29 -3 -30 4 0 12 -2
17 -3 6 -2 15 -3 21 -4 7 0 11 -9 10 -18 -1 -13 8 -19 32 -21 19 -2 32 1 32 8
0 16 83 2 93 -16 12 -20 38 -17 35 4 -2 12 3 17 20 16 30 -1 25 30 -5 34 -23
3 -23 3 -3 25 11 11 20 26 20 33 0 24 -128 48 -185 34z m80 -59 c16 -7 9 -10
-30 -16 -27 -4 -58 -9 -67 -12 -26 -7 -22 12 5 25 26 13 64 14 92 3z"/>
<path d="M1097 1873 c-21 -5 -57 -73 -57 -107 0 -32 47 -66 90 -66 28 0 31 2
20 15 -17 21 8 29 44 15 42 -16 66 -12 87 13 27 32 24 73 -7 102 -22 20 -38
25 -80 25 -29 0 -58 2 -66 4 -7 2 -21 2 -31 -1z m133 -73 c0 -12 -24 -12 -60
0 -21 7 -19 8 18 9 23 1 42 -3 42 -9z"/>
</g>
</svg>
