<svg xmlns="http://www.w3.org/2000/svg" width="12" height="16" fill="none" xmlns:v="https://vecta.io/nano"><path d="M6.313 0C3.819 0 2.203 1.022.935 2.845a.75.75 0 0 0 .162 1.027l1.348 1.022a.75.75 0 0 0 1.039-.13c.783-.981 1.363-1.545 2.586-1.545.961 0 2.151.619 2.151 1.551 0 .705-.582 1.067-1.531 1.599-1.107.621-2.572 1.393-2.572 3.325V10a.75.75 0 0 0 .75.75h2.265a.75.75 0 0 0 .75-.75v-.18c0-1.339 3.915-1.395 3.915-5.02 0-2.729-2.831-4.8-5.484-4.8zM6 11.671a2.17 2.17 0 0 0-2.165 2.165A2.17 2.17 0 0 0 6 16a2.17 2.17 0 0 0 2.165-2.165A2.17 2.17 0 0 0 6 11.671z" fill="#fff"/></svg>