<svg xmlns="http://www.w3.org/2000/svg" width="15" height="16" fill="none" xmlns:v="https://vecta.io/nano"><path d="M6.503 5.049c.378-.979.567-1.468.875-1.536a.57.57 0 0 1 .245 0c.307.068.496.557.875 1.536.215.557.323.835.524 1.024.056.053.118.1.183.141.233.146.523.172 1.104.226.983.091 1.475.137 1.625.428.031.06.052.125.063.193.05.326-.312.667-1.034 1.35l-.201.19c-.338.319-.507.479-.605.678-.059.119-.098.248-.116.381-.031.221.019.453.118.915l.035.165c.177.83.266 1.245.155 1.449-.099.183-.283.3-.485.311-.225.011-.543-.257-1.178-.795-.418-.354-.628-.531-.86-.6-.212-.063-.437-.063-.65 0-.232.069-.441.246-.86.6-.635.537-.953.806-1.178.795-.202-.01-.386-.127-.485-.311-.111-.204-.022-.619.155-1.449l.035-.165c.099-.463.148-.694.118-.915-.018-.133-.058-.261-.116-.381-.098-.199-.267-.359-.605-.678l-.201-.19c-.723-.682-1.084-1.024-1.034-1.35.01-.067.031-.133.063-.193.15-.291.642-.337 1.625-.428.581-.054.871-.081 1.104-.226.065-.041.127-.088.183-.141.201-.189.309-.468.524-1.024z" fill="#6db9ff"/></svg>