<?xml version="1.0" standalone="no"?>
<!DOCTYPE svg PUBLIC "-//W3C//DTD SVG 20010904//EN"
 "http://www.w3.org/TR/2001/REC-SVG-20010904/DTD/svg10.dtd">
<svg version="1.0" xmlns="http://www.w3.org/2000/svg"
 width="320.000000pt" height="320.000000pt" viewBox="0 0 320.000000 320.000000"
 preserveAspectRatio="xMidYMid meet">
<metadata>
Created by potrace 1.14, written by Peter Selinger 2001-2017
</metadata>
<g transform="translate(0.000000,320.000000) scale(0.100000,-0.100000)"
fill="#000000" stroke="none">
<path d="M597 3189 c-140 -10 -196 -23 -282 -68 -136 -70 -250 -213 -284 -355
-24 -100 -30 -329 -30 -1161 -1 -866 6 -1087 35 -1185 54 -183 221 -346 398
-389 100 -24 329 -30 1166 -30 837 0 1066 6 1166 30 185 45 359 218 403 403
24 100 30 327 30 1121 0 832 -8 1132 -32 1221 -51 184 -220 350 -401 393 -28
7 -109 16 -180 21 -158 11 -1836 10 -1989 -1z m1396 -471 c-146 -341 -143
-332 -117 -325 30 9 294 20 294 13 0 -4 -16 -38 -35 -76 l-35 -70 -270 0
c-149 0 -270 2 -270 5 0 7 550 745 555 745 2 0 -53 -132 -122 -292z m184 -567
c47 -22 70 -58 80 -126 l6 -45 -50 0 -50 0 -7 40 c-7 44 -22 56 -60 46 -26 -6
-37 -38 -28 -82 3 -15 41 -65 88 -114 107 -114 128 -182 84 -278 -15 -34 -29
-47 -66 -64 -109 -48 -214 18 -214 135 l0 47 50 0 50 0 0 -38 c0 -43 14 -62
45 -62 31 0 45 19 45 64 0 49 -15 72 -102 158 -70 69 -88 107 -88 181 0 121
106 188 217 138z m-939 -36 c2 -31 -16 -87 -88 -262 -49 -123 -90 -225 -90
-228 0 -3 41 -5 90 -5 l90 0 0 -50 0 -50 -150 0 -150 0 0 45 c0 33 23 102 90
266 50 122 90 224 90 225 0 2 -38 4 -85 4 l-85 0 0 50 0 51 143 -3 142 -3 3
-40z m322 -5 l0 -50 -85 0 -85 0 0 -80 0 -80 70 0 70 0 0 -45 0 -45 -70 0 -70
0 0 -95 0 -95 85 0 85 0 0 -50 0 -50 -135 0 -135 0 0 320 0 320 135 0 135 0 0
-50z m152 -215 c3 -223 5 -267 18 -275 25 -16 59 -11 70 9 6 12 10 118 10 275
l0 256 50 0 50 0 0 -267 c0 -295 -3 -313 -63 -357 -39 -29 -135 -29 -174 0
-60 44 -63 62 -63 357 l0 267 49 0 50 0 3 -265z m-702 -510 l0 -85 35 0 35 0
0 85 0 85 35 0 35 0 0 -215 0 -215 -35 0 -35 0 0 95 0 95 -35 0 -35 0 0 -95 0
-95 -35 0 -35 0 0 215 0 215 35 0 35 0 0 -85z m378 53 c-3 -33 -4 -33 -60 -36
l-58 -3 0 -49 0 -50 45 0 c45 0 45 0 45 -35 0 -35 0 -35 -45 -35 l-45 0 0 -60
0 -59 58 -3 c56 -3 57 -3 60 -35 l3 -33 -95 0 -96 0 0 215 0 215 96 0 95 0 -3
-32z m211 -170 c18 -112 34 -209 36 -215 3 -9 -8 -13 -35 -13 -36 0 -40 3 -40
24 0 43 -10 56 -45 56 -31 0 -34 -3 -40 -40 -6 -38 -9 -40 -42 -40 -32 0 -34
2 -29 28 3 15 17 99 31 187 37 237 29 215 84 215 l48 0 32 -202z m141 23 l0
-180 53 -3 c51 -3 52 -4 55 -35 l3 -33 -95 0 -96 0 0 215 0 215 40 0 40 0 0
-179z m280 144 c0 -33 -2 -35 -35 -35 l-35 0 0 -180 0 -180 -35 0 -35 0 0 180
0 180 -35 0 c-33 0 -35 2 -35 35 l0 35 105 0 105 0 0 -35z m100 -50 l0 -85 35
0 35 0 0 85 0 85 35 0 35 0 0 -215 0 -215 -35 0 -35 0 0 95 0 95 -35 0 -35 0
0 -95 0 -95 -35 0 -35 0 0 215 0 215 35 0 35 0 0 -85z m-482 -462 c-8 -10 -67
-88 -129 -173 -294 -398 -422 -570 -425 -570 -5 0 0 13 135 329 67 156 121
287 121 290 0 4 -51 3 -112 -2 -62 -4 -132 -6 -155 -5 l-42 3 34 73 34 72 277
0 c263 0 276 -1 262 -17z"/>
<path d="M1506 1300 c-4 -36 -10 -75 -13 -87 -4 -20 -1 -23 22 -23 26 0 26 0
20 54 -4 29 -10 68 -14 87 -7 31 -8 28 -15 -31z"/>
</g>
</svg>
