<?xml version="1.0" standalone="no"?>
<!DOCTYPE svg PUBLIC "-//W3C//DTD SVG 20010904//EN"
 "http://www.w3.org/TR/2001/REC-SVG-20010904/DTD/svg10.dtd">
<svg version="1.0" xmlns="http://www.w3.org/2000/svg"
 width="320.000000pt" height="320.000000pt" viewBox="0 0 320.000000 320.000000"
 preserveAspectRatio="xMidYMid meet">
<metadata>
Created by potrace 1.14, written by Peter Selinger 2001-2017
</metadata>
<g transform="translate(0.000000,320.000000) scale(0.100000,-0.100000)"
fill="#000000" stroke="none">
<path d="M505 3189 c-126 -21 -261 -93 -344 -185 -63 -69 -103 -139 -133 -234
l-23 -75 0 -1100 0 -1100 28 -78 c35 -100 94 -193 162 -255 68 -63 122 -94
221 -129 l79 -28 1090 0 c1137 0 1146 0 1227 41 24 12 26 18 18 39 -6 17 -6
25 1 25 6 0 8 4 4 9 -3 5 -1 12 4 16 6 3 8 -3 6 -15 -2 -11 1 -22 6 -26 15 -9
4 53 -13 73 -9 12 -9 15 0 9 6 -4 12 -3 12 3 0 6 7 8 15 5 9 -4 15 0 15 10 0
10 -6 13 -15 10 -12 -5 -13 -2 -6 17 5 13 14 23 20 22 6 -2 11 2 11 7 0 6 -4
10 -10 10 -5 0 -10 7 -10 15 0 7 -6 18 -14 22 -12 7 -11 10 2 23 14 13 15 12
9 -3 -6 -15 -3 -17 16 -12 29 9 46 26 18 18 -25 -6 -27 4 -4 29 9 10 11 18 6
18 -6 0 -13 -7 -17 -15 -3 -8 -10 -15 -16 -15 -6 0 -4 7 4 16 9 8 13 20 10 26
-5 7 -2 8 6 3 10 -6 12 -4 6 10 -4 11 -2 22 6 27 8 5 9 11 3 16 -19 14 -15 32
10 44 13 6 22 15 19 20 -3 5 -12 4 -19 -2 -12 -10 -12 -7 -2 13 6 14 14 24 17
22 9 -5 6 42 -3 51 -4 4 0 16 9 25 16 17 15 19 -11 29 -30 11 -30 11 23 68 7
7 11 26 10 40 -2 35 11 74 23 67 5 -4 9 -1 9 4 0 6 -4 11 -9 11 -5 0 -9 14 -9
31 1 29 2 30 15 14 7 -11 13 -14 13 -8 0 7 -4 15 -10 18 -5 3 -10 13 -10 22 0
13 2 14 18 2 15 -13 16 -12 4 3 -8 10 -11 27 -7 40 5 18 4 20 -4 8 -9 -13 -11
-13 -11 3 0 9 -4 17 -10 17 -5 0 -10 5 -10 11 0 8 5 8 15 -1 8 -7 15 -9 15 -5
0 4 8 1 18 -6 14 -11 13 -10 -2 9 -11 12 -16 22 -11 22 4 0 1 8 -6 17 -10 11
-10 14 -1 9 6 -4 12 -3 12 3 0 5 -4 11 -10 13 -6 2 -6 9 0 18 7 12 11 10 19
-10 5 -14 10 -19 10 -11 1 8 -7 23 -16 34 -17 19 -17 20 5 15 25 -7 28 8 7 35
-7 11 -11 26 -8 35 12 39 28 62 39 58 13 -5 7 31 -7 40 -5 3 -6 -3 -2 -13 4
-13 3 -15 -5 -8 -6 6 -9 20 -5 33 5 21 6 21 19 5 12 -16 13 -14 8 15 -4 21 -3
32 5 32 8 0 8 4 -1 14 -7 8 -17 11 -22 8 -5 -3 -6 0 -2 7 5 7 14 10 20 8 7 -3
13 1 13 9 0 7 -4 11 -9 8 -4 -3 -8 8 -8 25 0 16 6 34 13 38 8 4 17 17 20 28
l7 20 -16 -20 -16 -20 4 20 c2 11 8 26 15 33 9 9 9 20 3 37 -7 18 -6 24 3 22
7 -1 11 8 10 26 -1 15 2 27 8 27 6 0 7 -5 4 -10 -3 -6 -2 -10 4 -10 5 0 9 9 8
19 -1 13 -6 17 -17 13 -13 -5 -13 -4 0 13 8 10 14 26 12 36 -2 9 3 19 11 21
11 2 9 8 -6 23 -11 11 -16 13 -12 5 5 -10 1 -8 -13 4 -12 11 -22 20 -22 21 0
1 14 0 30 -3 24 -3 30 -1 30 14 0 13 -3 15 -8 7 -4 -7 -13 -9 -21 -4 -9 6 -7
10 11 14 15 4 23 14 24 29 1 13 4 33 7 46 3 12 1 22 -5 22 -5 0 -7 8 -4 17 4
9 1 20 -6 25 -10 6 -10 8 2 8 8 0 21 9 28 20 7 11 8 20 3 20 -13 0 -8 24 8 44
7 9 11 16 7 16 -4 0 1 11 10 25 16 24 16 25 -1 18 -13 -4 -16 -3 -11 5 9 16
-12 82 -26 82 -6 0 -9 3 -6 6 3 3 15 0 27 -7 27 -17 40 -3 15 16 -19 15 -19
15 1 8 17 -6 18 -5 7 9 -8 10 -9 19 -4 22 6 3 10 31 11 61 0 31 -4 53 -8 50
-5 -2 -11 2 -14 10 -4 9 -1 12 9 8 12 -4 14 19 10 168 -2 96 -9 197 -16 224
-54 212 -214 377 -426 441 -55 17 -133 18 -1129 20 -588 1 -1092 -2 -1120 -7z
m1068 -504 c-5 -25 -7 -26 -13 -10 -4 11 -2 25 4 31 15 16 15 14 9 -21z m37
-22 c-11 -17 -11 -17 -6 0 3 10 7 26 7 35 1 15 2 15 6 0 2 -10 -1 -25 -7 -35z
m424 -38 c6 -18 -20 -39 -39 -31 -18 7 -20 43 -2 49 17 6 34 -2 41 -18z m86 1
c0 -8 6 -17 13 -20 8 -3 6 -9 -7 -20 -25 -21 -29 -20 -44 5 -11 18 -11 23 5
35 23 17 33 17 33 0z m-1019 -26 c16 0 10 -52 -7 -65 -26 -18 -61 3 -62 36 -1
28 18 41 46 33 8 -2 18 -4 23 -4z m59 -61 c0 -23 -28 -26 -37 -3 -6 16 15 37
29 28 4 -3 8 -14 8 -25z m750 11 c36 -6 88 -15 116 -21 l51 -10 5 -73 c9 -139
97 -270 222 -331 63 -31 61 -17 21 -181 -64 -256 -219 -526 -416 -725 l-97
-98 39 -15 c50 -20 69 -20 141 0 84 24 134 72 153 149 8 32 15 73 16 90 0 26
2 27 9 10 13 -31 12 -105 -4 -163 -12 -49 -12 -52 5 -52 20 0 33 37 45 129 6
48 8 52 16 31 13 -36 13 -168 -1 -217 -43 -157 -206 -238 -407 -204 -38 7
-106 28 -152 48 l-82 35 -80 -41 -80 -42 -75 51 c-253 171 -423 433 -490 755
-25 120 -65 245 -79 245 -4 0 -5 -8 -1 -17 5 -14 4 -15 -6 -6 -10 10 -10 15 0
27 10 11 9 24 0 58 -8 25 -13 98 -13 173 0 176 21 229 84 210 12 -4 16 -25 17
-104 2 -100 2 -100 -25 -110 l-27 -9 25 -3 c46 -4 55 -2 110 23 122 55 227
170 277 303 l28 74 80 10 c44 6 98 13 120 15 67 7 386 -3 455 -14z m-948 -291
c2 -42 -1 -54 -17 -65 -31 -22 -35 -17 -35 41 0 41 4 56 18 64 28 17 30 14 34
-40z m2228 -30 c0 -6 -4 -7 -10 -4 -5 3 -10 -2 -10 -11 0 -10 -3 -15 -6 -11
-9 9 6 48 17 42 5 -4 9 -11 9 -16z m-25 -141 c-10 -31 -25 -47 -25 -26 0 9 5
20 10 23 6 4 8 11 5 16 -4 5 -1 9 5 9 7 0 9 -8 5 -22z m-5 -68 c0 -5 -5 -10
-11 -10 -5 0 -7 5 -4 10 3 6 8 10 11 10 2 0 4 -4 4 -10z m-26 -71 c-3 -5 -10
-7 -15 -3 -5 3 -7 10 -3 15 3 5 10 7 15 3 5 -3 7 -10 3 -15z m-11 -54 c-3 -9
-8 -14 -10 -11 -3 3 -2 9 2 15 9 16 15 13 8 -4z m-2478 -14 c7 -12 -12 -24
-25 -16 -11 7 -4 25 10 25 5 0 11 -4 15 -9z m62 -24 c-5 -28 -44 -36 -53 -12
-10 24 14 47 37 34 10 -5 18 -15 16 -22z m2433 -1 c0 -2 -8 -10 -17 -17 -16
-13 -17 -12 -4 4 13 16 21 21 21 13z m-732 -147 c16 -25 1 -49 -30 -49 -15 0
-18 4 -12 23 3 12 11 24 15 25 5 2 7 8 3 13 -3 5 -1 9 3 9 5 0 14 -9 21 -21z
m-1668 -19 c0 -21 -24 -28 -35 -10 -8 14 3 30 21 30 8 0 14 -9 14 -20z m2361
-17 c8 -10 9 -14 2 -10 -6 4 -14 3 -18 -3 -9 -15 -25 -2 -18 15 7 20 17 19 34
-2z m-2297 -96 c-1 -9 4 -17 12 -17 20 0 27 -19 13 -36 -6 -8 -14 -12 -17 -9
-3 2 -10 -3 -17 -12 -14 -19 -50 -10 -42 11 3 8 -2 16 -14 19 -24 6 -25 26 -1
34 9 4 21 13 25 20 12 19 42 11 41 -10z m2266 -53 c0 -8 -5 -12 -10 -9 -6 4
-8 11 -5 16 9 14 15 11 15 -7z m-645 -104 c0 -29 -32 -41 -41 -16 -9 24 4 48
23 44 12 -2 18 -12 18 -28z m-95 -10 c15 -8 16 -13 7 -35 -14 -28 -16 -29 -39
-11 -11 8 -15 20 -11 34 6 24 15 27 43 12z m-1654 -91 c10 -17 -18 -40 -36
-28 -12 8 -12 9 4 7 10 -2 21 3 24 11 3 10 -1 12 -17 8 -11 -3 -19 -1 -15 4 7
12 31 11 40 -2z m1922 -53 c5 -25 -12 -39 -37 -31 -20 6 -28 34 -14 49 13 13
48 1 51 -18z m-334 -233 c9 -22 -10 -41 -25 -26 -13 13 -5 43 10 43 5 0 12 -8
15 -17z m-1190 -194 c-3 -6 0 -16 7 -21 12 -8 11 -9 -1 -5 -18 4 -27 37 -10
37 6 0 8 -5 4 -11z m34 -14 c-3 -3 -9 2 -12 12 -6 14 -5 15 5 6 7 -7 10 -15 7
-18z m280 -31 c3 -23 -33 -41 -42 -20 -3 8 -7 7 -14 -3 -5 -7 -15 -10 -21 -7
-18 11 -13 26 9 26 12 0 20 7 20 16 0 24 44 13 48 -12z m832 -39 c16 -19 5
-61 -18 -74 -21 -11 -60 3 -69 24 -3 9 -1 27 5 41 13 28 62 34 82 9z m727 -21
c-3 -3 -12 -4 -19 -1 -8 3 -5 6 6 6 11 1 17 -2 13 -5z m-1297 -19 c0 -8 -6
-15 -14 -15 -17 0 -28 14 -19 24 12 12 33 6 33 -9z m-535 -20 c0 -13 -8 -21
-22 -23 -17 -3 -23 2 -23 16 0 10 3 22 7 26 13 13 38 1 38 -19z m575 10 c0 -8
-7 -15 -15 -15 -8 0 -15 7 -15 15 0 8 7 15 15 15 8 0 15 -7 15 -15z m-658 -32
c10 -5 -14 -43 -27 -43 -26 1 -37 17 -26 38 10 20 24 21 53 5z m608 8 c0 -5 9
-7 20 -4 13 4 20 0 20 -9 0 -22 -10 -28 -29 -18 -9 5 -24 11 -34 14 -10 3 -15
10 -12 16 8 12 35 13 35 1z m1285 -71 c-3 -5 -13 -6 -21 -3 -12 4 -13 8 -3 14
15 9 32 2 24 -11z m0 -30 c3 -5 2 -10 -4 -10 -5 0 -13 5 -16 10 -3 6 -2 10 4
10 5 0 13 -4 16 -10z m-1457 -49 c19 -12 11 -45 -12 -49 -25 -5 -39 12 -31 37
7 22 21 26 43 12z m1409 -100 c0 -11 -5 -18 -9 -15 -4 3 -5 11 -1 19 7 21 12
19 10 -4z"/>
<path d="M1060 2570 c0 -5 5 -10 10 -10 6 0 10 5 10 10 0 6 -4 10 -10 10 -5 0
-10 -4 -10 -10z"/>
<path d="M1410 2520 c-126 -13 -126 -13 -145 -69 -33 -100 -157 -250 -242
-295 l-32 -16 25 -68 c46 -125 98 -217 208 -362 190 -253 370 -445 503 -537
l55 -38 97 100 c108 112 176 199 246 317 44 75 114 222 120 257 2 9 4 17 5 19
2 1 3 5 5 10 1 4 4 14 8 22 18 47 28 93 23 106 -3 8 -2 13 3 10 8 -5 27 82 19
88 -2 2 -25 16 -51 31 -115 66 -202 199 -214 328 -7 75 3 68 -128 87 -99 15
-404 20 -505 10z"/>
<path d="M916 2028 c73 -215 242 -472 449 -684 l87 -89 -94 105 c-217 243
-369 485 -425 677 -10 35 -23 63 -30 63 -8 0 -4 -23 13 -72z"/>
<path d="M920 1603 c0 -23 53 -159 90 -233 82 -161 215 -315 354 -409 l73 -49
52 29 52 30 -88 58 c-183 121 -379 329 -497 525 -20 33 -36 55 -36 49z"/>
<path d="M1505 1210 c10 -11 20 -20 23 -20 3 0 -3 9 -13 20 -10 11 -20 20 -23
20 -3 0 3 -9 13 -20z"/>
<path d="M2096 1064 c-35 -30 -115 -64 -153 -64 -7 0 -13 -4 -13 -10 0 -18
102 -11 146 10 56 28 80 55 68 79 -8 18 -12 17 -48 -15z"/>
<path d="M1740 1050 c0 -9 43 -29 100 -47 32 -10 41 -10 32 -1 -15 15 -132 58
-132 48z"/>
<path d="M766 1575 c-3 -8 -12 -15 -21 -15 -25 0 -17 -17 11 -24 30 -8 39 -3
29 14 -6 9 -10 9 -17 -1 -8 -11 -9 -11 -5 1 2 8 10 15 17 15 7 0 15 6 18 13 5
17 -25 15 -32 -3z"/>
<path d="M797 1543 c4 -9 -2 -16 -16 -20 -23 -6 -29 -23 -7 -23 8 0 16 7 20
15 3 8 11 14 17 13 20 -5 21 19 0 25 -14 3 -18 1 -14 -10z"/>
<path d="M2560 1260 c0 -5 5 -10 10 -10 6 0 10 5 10 10 0 6 -4 10 -10 10 -5 0
-10 -4 -10 -10z"/>
<path d="M1440 510 c0 -5 5 -10 10 -10 6 0 10 5 10 10 0 6 -4 10 -10 10 -5 0
-10 -4 -10 -10z"/>
<path d="M3023 1170 c-11 -16 -10 -18 2 -14 8 4 15 12 15 20 0 19 -3 18 -17
-6z"/>
<path d="M2943 673 c-15 -5 -17 -23 -4 -23 5 0 11 7 15 15 3 8 4 15 3 14 -1 0
-8 -3 -14 -6z"/>
<path d="M2917 471 c-18 -7 -18 -7 0 -21 10 -8 15 -10 11 -6 -4 5 -3 15 3 23
13 14 12 15 -14 4z"/>
<path d="M2891 284 c0 -11 3 -14 6 -6 3 7 2 16 -1 19 -3 4 -6 -2 -5 -13z"/>
</g>
</svg>
