<svg xmlns="http://www.w3.org/2000/svg" width="16" height="16" fill="none" xmlns:v="https://vecta.io/nano"><path d="M4 7.333V10m8-4v2.667m-.667-6c1.633 0 2.515.25 2.955.444a.47.47 0 0 1 .172.119c.051.048.143.19.167.256.04.11.04.17.04.29v7.166c0 .606 0 .909-.091 1.065a.58.58 0 0 1-.354.293c-.17.06-.513-.006-1.2-.138a8.96 8.96 0 0 0-1.688-.16c-2 0-4 1.333-6.667 1.333-1.632 0-2.515-.25-2.955-.444a.47.47 0 0 1-.172-.119c-.051-.048-.143-.19-.167-.256-.04-.11-.04-.17-.04-.29V5.059c0-.606 0-.909.091-1.064a.58.58 0 0 1 .355-.293c.17-.06.513.006 1.2.138A8.96 8.96 0 0 0 4.666 4c2 0 4-1.333 6.667-1.333zM9.666 8c0 .92-.746 1.667-1.667 1.667S6.333 8.921 6.333 8 7.079 6.333 8 6.333 9.666 7.08 9.666 8z" stroke="#2a7a24" stroke-linecap="round" stroke-linejoin="round"/></svg>