<svg xmlns="http://www.w3.org/2000/svg" width="160" height="160" fill="none" xmlns:v="https://vecta.io/nano"><rect width="160" height="160" rx="18.75" fill="#f2f4f6"/><path d="M110 108.711V96.188s2.069.044 3.354-.224c1.271-.265 3.131-1.118 3.131-1.118l-.447 11.405c-.894 4.696-6.038 2.46-6.038 2.46z" fill="#47af3e" stroke="#47af3e" stroke-width=".447"/><path d="M121.629 89.479V74.495s-1.502 1.907-4.026 2.684c-2.012.619-3.354-.269-5.591.671-3.931 1.652-6.508 4.688-6.261 8.945.21 3.629.67 6.933 6.261 6.933 0 0 3.36-.867 5.367-1.789 1.743-.8 4.25-2.46 4.25-2.46z" fill="url(#A)"/><path d="M82.717 120.34l-3.355-59.933c-.224-1.789-2.236-2.46-2.236-2.46s-24.599-6.262-37.347-14.76c-.895-.596-1.342-1.118-1.342-1.118l1.565 55.461c.224 3.355 1.566 3.802 1.566 3.802l37.794 20.575c3.578 1.565 3.355-1.566 3.355-1.566z" fill="url(#B)"/><ellipse cx="74.442" cy="87.69" rx="2.46" ry="3.578" fill="#fff"/><path d="M40.004 39.609c.374 1.047 1.787 1.789 1.787 1.789s.923-2.238 8.723-1.566C76.455 42.069 113.8 48.33 113.8 48.33c2.014.671 1.343 2.683-1.116 2.236 0 0-37.123-6.933-60.381-8.722-4.067-.313-9.695.1-6.933 2.013 2.907 2.013 31.309 11.405 31.309 11.405 4.918 1.118 4.918 4.025 4.918 4.025l25.27 3.131v-3.802c.002-2.684-3.578-3.355-3.578-3.355L51.183 44.752l1.342-1.342 53.448 9.84s3.578.894 3.578 4.473v19.009s3.803-1.789 6.04-1.789 6.56-2.907 5.367-4.249c-.665-.748-2.685-1.118-2.685-1.118l.447-21.245s0-3.355-4.92-4.025c0 0-41.145-5.144-67.088-6.709-2.541-.153-7.581-.432-6.708 2.013zm66.865 30.19V65.55l-24.823-4.249v4.696l24.823 3.802zm0 6.933v-4.696l-24.152-3.578v4.696l24.152 3.578zM84.506 108.04l21.469 4.92c1.789.447 1.789-1.566 1.789-1.566v-15.43s-4.697-1.342-4.697-8.945c0-6.485 3.355-8.051 3.355-8.051l-23.258-3.802 1.342 32.874z" fill="#2a7a24"/><defs><linearGradient id="A" x1="113.657" y1="74.495" x2="123.374" y2="87.431" gradientUnits="userSpaceOnUse"><stop stop-color="#53c24a"/><stop offset="1" stop-color="#3d9c35"/></linearGradient><linearGradient id="B" x1="60.511" y1="42.069" x2="102.447" y2="79.335" gradientUnits="userSpaceOnUse"><stop stop-color="#53c24a"/><stop offset="1" stop-color="#3d9c35"/></linearGradient></defs></svg>