<svg xmlns="http://www.w3.org/2000/svg" width="250" height="250" fill="none" xmlns:v="https://vecta.io/nano"><style><![CDATA[.B{color-interpolation-filters:sRGB}.C{flood-opacity:0}]]></style><g filter="url(#A)"><circle cx="125" cy="125" r="65" fill="url(#R)"/></g><g filter="url(#B)"><circle r="1" transform="matrix(-1 0 0 1 147 74)" fill="#fb2724"/></g><g filter="url(#C)"><circle r="1" transform="matrix(-1 0 0 1 149 92)" fill="#f86d41"/></g><g filter="url(#D)"><circle r="1.5" transform="matrix(-1 0 0 1 180.5 80.5)" fill="url(#S)"/></g><g filter="url(#E)"><circle r=".5" transform="matrix(-1 0 0 1 157.5 81.5)" fill="url(#T)"/></g><g filter="url(#F)"><circle r=".5" transform="matrix(-1 0 0 1 176.5 107.5)" fill="url(#T)"/></g><g filter="url(#G)"><circle r=".5" transform="matrix(-1 0 0 1 162.5 66.5)" fill="url(#T)"/></g><g filter="url(#H)"><circle r="1" transform="matrix(-1 0 0 1 189 93)" fill="url(#U)"/></g><g filter="url(#I)"><circle r="1" transform="matrix(-1 0 0 1 148 108)" fill="url(#U)"/></g><g filter="url(#J)"><circle r="1" transform="matrix(-1 0 0 1 151 76)" fill="#fb2724"/></g><g filter="url(#K)"><circle r="1" transform="matrix(-1 0 0 1 158 92)" fill="#f86d41"/></g><g filter="url(#L)"><circle r="1.5" transform="matrix(-1 0 0 1 187.5 75.5)" fill="url(#S)"/></g><g filter="url(#M)"><circle r=".5" transform="matrix(-1 0 0 1 149.5 79.5)" fill="url(#T)"/></g><g filter="url(#N)"><circle r=".5" transform="matrix(-1 0 0 1 177.5 109.5)" fill="url(#T)"/></g><g filter="url(#O)"><circle r=".5" transform="matrix(-1 0 0 1 158.5 60.5)" fill="url(#T)"/></g><g filter="url(#P)"><circle r="1" transform="matrix(-1 0 0 1 186 94)" fill="url(#U)"/></g><g filter="url(#Q)"><circle r="1" transform="matrix(-1 0 0 1 154 98)" fill="url(#U)"/></g><defs><filter id="A" x="0" y="0" width="250" height="250" filterUnits="userSpaceOnUse" class="B"><feFlood class="C"/><feBlend in="SourceGraphic"/><feGaussianBlur stdDeviation="30"/></filter><filter id="B" x="144" y="71" width="6" height="6" filterUnits="userSpaceOnUse" class="B"><feFlood class="C"/><feBlend in="SourceGraphic"/><feGaussianBlur stdDeviation="1"/></filter><filter id="C" x="145" y="88" width="8" height="8" filterUnits="userSpaceOnUse" class="B"><feFlood class="C"/><feBlend in="SourceGraphic"/><feGaussianBlur stdDeviation="1.5"/></filter><filter id="D" x="176" y="76" width="9" height="9" filterUnits="userSpaceOnUse" class="B"><feFlood class="C"/><feBlend in="SourceGraphic"/><feGaussianBlur stdDeviation="1.5"/></filter><filter id="E" x="156" y="80" width="3" height="3" filterUnits="userSpaceOnUse" class="B"><feFlood class="C"/><feBlend in="SourceGraphic"/><feGaussianBlur stdDeviation=".5"/></filter><filter id="F" x="175" y="106" width="3" height="3" filterUnits="userSpaceOnUse" class="B"><feFlood class="C"/><feBlend in="SourceGraphic"/><feGaussianBlur stdDeviation=".5"/></filter><filter id="G" x="161" y="65" width="3" height="3" filterUnits="userSpaceOnUse" class="B"><feFlood class="C"/><feBlend in="SourceGraphic"/><feGaussianBlur stdDeviation=".5"/></filter><filter id="H" x="187" y="91" width="4" height="4" filterUnits="userSpaceOnUse" class="B"><feFlood class="C"/><feBlend in="SourceGraphic"/><feGaussianBlur stdDeviation=".5"/></filter><filter id="I" x="146" y="106" width="4" height="4" filterUnits="userSpaceOnUse" class="B"><feFlood class="C"/><feBlend in="SourceGraphic"/><feGaussianBlur stdDeviation=".5"/></filter><filter id="J" x="148" y="73" width="6" height="6" filterUnits="userSpaceOnUse" class="B"><feFlood class="C"/><feBlend in="SourceGraphic"/><feGaussianBlur stdDeviation="1"/></filter><filter id="K" x="154" y="88" width="8" height="8" filterUnits="userSpaceOnUse" class="B"><feFlood class="C"/><feBlend in="SourceGraphic"/><feGaussianBlur stdDeviation="1.5"/></filter><filter id="L" x="183" y="71" width="9" height="9" filterUnits="userSpaceOnUse" class="B"><feFlood class="C"/><feBlend in="SourceGraphic"/><feGaussianBlur stdDeviation="1.5"/></filter><filter id="M" x="148" y="78" width="3" height="3" filterUnits="userSpaceOnUse" class="B"><feFlood class="C"/><feBlend in="SourceGraphic"/><feGaussianBlur stdDeviation=".5"/></filter><filter id="N" x="176" y="108" width="3" height="3" filterUnits="userSpaceOnUse" class="B"><feFlood class="C"/><feBlend in="SourceGraphic"/><feGaussianBlur stdDeviation=".5"/></filter><filter id="O" x="157" y="59" width="3" height="3" filterUnits="userSpaceOnUse" class="B"><feFlood class="C"/><feBlend in="SourceGraphic"/><feGaussianBlur stdDeviation=".5"/></filter><filter id="P" x="184" y="92" width="4" height="4" filterUnits="userSpaceOnUse" class="B"><feFlood class="C"/><feBlend in="SourceGraphic"/><feGaussianBlur stdDeviation=".5"/></filter><filter id="Q" x="152" y="96" width="4" height="4" filterUnits="userSpaceOnUse" class="B"><feFlood class="C"/><feBlend in="SourceGraphic"/><feGaussianBlur stdDeviation=".5"/></filter><radialGradient id="R" cx="0" cy="0" r="1" gradientUnits="userSpaceOnUse" gradientTransform="translate(125 125) rotate(90) scale(65)"><stop stop-color="#fe0303"/><stop offset="1" stop-color="#131529"/></radialGradient><linearGradient id="S" x1="3" y1="1.682" x2=".021" y2="1.946" gradientUnits="userSpaceOnUse"><stop stop-color="#fb2724"/><stop offset="1" stop-color="#f86d41"/></linearGradient><linearGradient id="T" x1="1" y1=".561" x2=".007" y2=".649" gradientUnits="userSpaceOnUse"><stop stop-color="#fb2724"/><stop offset="1" stop-color="#f86d41"/></linearGradient><linearGradient id="U" x1="2" y1="1.122" x2=".014" y2="1.298" gradientUnits="userSpaceOnUse"><stop stop-color="#fb2724"/><stop offset="1" stop-color="#f86d41"/></linearGradient></defs></svg>