<svg xmlns="http://www.w3.org/2000/svg" xmlns:xlink="http://www.w3.org/1999/xlink" width="21" height="21" fill="none" xmlns:v="https://vecta.io/nano"><g clip-path="url(#F)"><path d="M17.5 10.501l-5.721 1.044L10.5 17.5l-1.279-5.954L3.5 10.499l5.697-1.375L10.5 3.5l1.303 5.624 5.697 1.377z" fill="url(#A)"/><path d="M6.771 6.356l-1.635.298-.365 1.701-.365-1.701-1.635-.299 1.628-.393.372-1.607.372 1.607 1.628.394z" fill="url(#B)"/><path d="M18.071 13.657l-1.635.298-.365 1.701-.365-1.701-1.635-.299 1.628-.393.372-1.607.372 1.607 1.628.393z" fill="url(#C)"/><path d="M15.457 6.545l-.745.136-.167.776-.167-.776-.745-.136.742-.179.17-.733.17.733.742.179z" fill="url(#D)"/><path d="M7.457 14.545l-.746.136-.167.776-.167-.776-.745-.136.742-.179.17-.733.17.733.742.179z" fill="url(#E)"/></g><defs><linearGradient id="A" x1="3.5" y1="13.192" x2="37.408" y2=".059" xlink:href="#G"><stop stop-color="#e16c20"/><stop offset=".445" stop-color="#fc450b"/></linearGradient><linearGradient id="B" x1="2.771" y1="7.125" x2="4.792" y2="7.162" xlink:href="#G"><stop stop-color="#e16c20"/><stop offset=".451" stop-color="#fc450b"/></linearGradient><linearGradient id="C" x1="14.071" y1="14.426" x2="16.092" y2="14.463" xlink:href="#G"><stop stop-color="#e16c20"/><stop offset=".451" stop-color="#fc450b"/></linearGradient><linearGradient id="D" x1="13.633" y1="6.896" x2="14.555" y2="6.913" xlink:href="#G"><stop stop-color="#e16c20"/><stop offset=".451" stop-color="#fc450b"/></linearGradient><linearGradient id="E" x1="5.633" y1="14.896" x2="6.555" y2="14.913" xlink:href="#G"><stop stop-color="#e16c20"/><stop offset=".451" stop-color="#fc450b"/></linearGradient><clipPath id="F"><path fill="#fff" transform="translate(2.5 2.5)" d="M0 0h16v16H0z"/></clipPath><linearGradient id="G" gradientUnits="userSpaceOnUse"/></defs></svg>