<svg xmlns="http://www.w3.org/2000/svg" width="24" height="24" fill="none" xmlns:v="https://vecta.io/nano"><mask id="A" maskUnits="userSpaceOnUse" x="0" y="0" width="24" height="24" mask-type="alpha"><path fill="#d9d9d9" d="M0 0h24v24H0z"/></mask><g mask="url(#A)"><path d="M17.992 11.7a4.99 4.99 0 0 1 .653-2.403c.417-.733 1.014-1.35 1.735-1.791a5.13 5.13 0 0 0-1.763-1.567 5.15 5.15 0 0 0-2.28-.613c-1.701-.178-3.351 1.015-4.218 1.015-.884 0-2.218-.997-3.656-.968-.93.03-1.836.3-2.63.783A5.38 5.38 0 0 0 3.93 8.128c-1.959 3.383-.498 8.355 1.379 11.089.939 1.339 2.037 2.835 3.473 2.782 1.405-.058 1.93-.894 3.626-.894 1.681 0 2.173.894 3.638.86 1.508-.024 2.458-1.345 3.364-2.697a11.05 11.05 0 0 0 1.538-3.124 4.84 4.84 0 0 1-2.15-1.778 4.82 4.82 0 0 1-.808-2.666zm-2.768-8.173c.822-.984 1.227-2.249 1.129-3.527a5.03 5.03 0 0 0-3.25 1.677c-.407.462-.719 1-.918 1.583a4.67 4.67 0 0 0-.24 1.813 4.16 4.16 0 0 0 1.818-.397 4.15 4.15 0 0 0 1.461-1.149z" fill="#fff"/></g></svg>