<svg xmlns="http://www.w3.org/2000/svg" width="72" height="157" fill="none" xmlns:v="https://vecta.io/nano"><path d="M67.252 34.695l-3.92 8.221H33.668L64.747.94 49.915 35.818l17.337-1.123z" fill="url(#A)"/><path d="M4.973 123.199l3.981-8.35h29.698L7.478 156.954l14.832-34.878-17.337 1.123z" fill="url(#A)"/><path d="M.373 78.274l9.963-24.518H.861v-4.884h15.238v4.786L6.136 78.176h9.963v4.884H.373v-4.786zm18.769-29.402h14.652v4.884h-9.28v9.035h7.375v4.884h-7.375v10.501h9.28v4.884H19.142V48.872zM44.7 83.548c-2.605 0-4.591-.733-5.959-2.198-1.367-1.498-2.051-3.63-2.051-6.398v-26.08h5.372v26.472c0 1.172.228 2.019.684 2.54.488.521 1.172.781 2.051.781s1.547-.26 2.003-.781c.488-.521.733-1.368.733-2.54V48.872h5.177v26.081c0 2.768-.684 4.9-2.051 6.398-1.368 1.465-3.354 2.198-5.959 2.198zm18.82 0c-2.605 0-4.575-.733-5.91-2.198-1.335-1.498-2.002-3.63-2.002-6.398v-1.954h5.079v2.344c0 2.214.928 3.321 2.784 3.321.912 0 1.596-.26 2.051-.781.488-.553.733-1.433.733-2.637 0-1.433-.326-2.686-.977-3.761-.651-1.107-1.856-2.426-3.614-3.956-2.214-1.954-3.761-3.712-4.64-5.275-.879-1.596-1.319-3.386-1.319-5.372 0-2.702.684-4.786 2.051-6.251 1.367-1.498 3.354-2.247 5.959-2.247 2.572 0 4.51.749 5.812 2.247 1.335 1.465 2.003 3.582 2.003 6.349v1.416h-5.08v-1.758c0-1.172-.228-2.019-.684-2.54-.456-.554-1.123-.83-2.002-.83-1.791 0-2.686 1.091-2.686 3.272 0 1.237.326 2.393.977 3.468.684 1.075 1.905 2.377 3.663 3.907 2.247 1.954 3.793 3.728 4.64 5.324s1.27 3.468 1.27 5.617c0 2.8-.7 4.949-2.1 6.447-1.367 1.498-3.37 2.247-6.007 2.247zM.373 86.139h3.641v9.435H7.92v-9.435h3.641v23.173H7.92V98.884H4.014v10.428H.373V86.139zm13.901 0h9.931v3.31h-6.29v6.124h4.999v3.31h-4.999v7.118h6.29v3.31h-9.931V86.139zm14.84 0h4.932l3.774 23.173h-3.641l-.662-4.601v.066h-4.138l-.662 4.535H25.34l3.774-23.173zm3.972 15.493l-1.622-11.454h-.066l-1.589 11.454h3.277zm6.501-15.493h3.642v19.863h5.992v3.31h-9.633V86.139zm11.64 3.311H47.42v-3.31h11.255v3.31h-3.807v19.862h-3.641V89.45zm9.211-3.311h3.642v9.435h3.906v-9.435h3.641v23.173h-3.641V98.884H64.08v10.428h-3.642V86.139z" fill="#fff"/><defs><linearGradient id="A" x1="67.252" y1="88.435" x2="4.995" y2="90.635" gradientUnits="userSpaceOnUse"><stop stop-color="#fb2724"/><stop offset="1" stop-color="#f86d41"/></linearGradient></defs></svg>