<?xml version="1.0" standalone="no"?>
<!DOCTYPE svg PUBLIC "-//W3C//DTD SVG 20010904//EN"
 "http://www.w3.org/TR/2001/REC-SVG-20010904/DTD/svg10.dtd">
<svg version="1.0" xmlns="http://www.w3.org/2000/svg"
 width="700.000000pt" height="700.000000pt" viewBox="0 0 700.000000 700.000000"
 preserveAspectRatio="xMidYMid meet">
<metadata>
Created by potrace 1.14, written by Peter Selinger 2001-2017
</metadata>
<g transform="translate(0.000000,700.000000) scale(0.100000,-0.100000)"
fill="#000000" stroke="none">
<path d="M1825 5351 c-57 -15 -75 -30 -75 -62 0 -22 10 -41 35 -66 l35 -35 31
23 c71 51 214 60 494 34 575 -55 1454 -172 2339 -312 310 -49 346 -60 346
-103 0 -29 -36 -43 -99 -37 -31 2 -211 32 -401 65 -793 139 -1546 247 -2074
297 -272 26 -465 17 -498 -22 -11 -13 -8 -20 20 -43 58 -48 416 -183 1105
-415 244 -83 392 -138 416 -155 21 -15 47 -47 58 -71 l21 -44 518 -64 c286
-35 534 -66 553 -69 l33 -5 -4 99 c-3 65 -10 110 -21 130 -35 67 -44 69 -1142
290 -561 112 -1078 216 -1148 231 l-128 27 29 28 28 29 875 -161 c481 -88
1008 -186 1172 -216 163 -30 308 -59 321 -64 37 -14 98 -71 112 -107 11 -26
14 -125 14 -468 0 -239 3 -435 8 -435 4 0 52 16 107 35 55 19 117 35 137 35
85 0 240 89 254 146 9 34 -18 61 -75 78 -25 7 -45 16 -45 20 1 3 5 219 9 479
8 527 10 509 -59 562 -54 41 -106 53 -416 90 -1398 167 -2765 288 -2885 256z"/>
<path d="M1690 5064 c0 -211 60 -2298 69 -2363 5 -45 17 -84 28 -100 28 -37
1688 -941 1742 -948 45 -6 67 6 82 44 5 13 -21 539 -66 1340 -41 725 -75 1323
-75 1330 0 20 -58 80 -87 91 -16 6 -95 29 -178 52 -211 58 -589 185 -790 264
-260 103 -577 262 -702 352 l-23 16 0 -78z m1628 -1774 c86 -85 43 -280 -62
-280 -109 0 -147 213 -51 288 39 31 77 28 113 -8z"/>
<path d="M3590 4215 c0 -65 4 -105 10 -105 6 0 244 -36 530 -80 286 -44 526
-80 535 -80 12 0 15 16 15 90 0 85 -1 90 -22 95 -13 3 -248 43 -523 90 -275
47 -510 87 -522 90 -23 5 -23 4 -23 -100z"/>
<path d="M3620 3900 c0 -55 1 -100 3 -100 318 -50 1044 -156 1050 -153 4 2 7
49 7 104 0 54 -3 99 -7 99 -5 0 -235 34 -512 75 -278 41 -513 75 -523 75 -16
0 -18 -10 -18 -100z"/>
<path d="M5292 3707 c-13 -14 -51 -40 -85 -58 -54 -29 -73 -33 -171 -39 -98
-6 -119 -11 -175 -39 -83 -43 -164 -119 -198 -190 -26 -51 -28 -66 -28 -171 0
-166 33 -243 120 -281 81 -36 138 -35 260 5 95 32 230 98 288 140 16 12 17 38
15 336 l-3 322 -23 -25z"/>
<path d="M3640 3663 c2 -111 57 -1383 61 -1387 12 -12 901 -210 944 -211 48 0
50 1 62 35 8 24 12 136 12 367 l1 333 -38 19 c-104 53 -171 198 -172 372 0
137 33 240 101 314 23 25 37 45 31 45 -7 0 -232 36 -502 80 -270 44 -493 80
-495 80 -3 0 -5 -21 -5 -47z"/>
<path d="M5030 2833 c-41 -16 -96 -27 -147 -30 l-83 -6 0 -279 0 -278 28 -12
c48 -19 143 -15 181 7 64 38 74 74 83 304 5 113 7 231 6 262 l-3 56 -65 -24z"/>
</g>
</svg>
